<svg width="11" height="11" viewBox="0 0 11 11" xmlns="http://www.w3.org/2000/svg"><title>Shape</title><path d="M8.09 10.212c.428 0 .768-.115.979-.329.058-.058.122-.118.188-.183.382-.367.858-.825.832-1.419-.017-.408-.262-.801-.753-1.2-.58-.472-1.035-.692-1.43-.692-.491 0-.805.322-1.138.663-.034.035-.068.071-.104.106-.022.022-.056.045-.128.045-.212 0-.756-.192-2.03-1.481-.55-.557-.954-1.032-1.197-1.412-.243-.378-.327-.668-.222-.773l.104-.106c.303-.303.59-.586.647-1.002.062-.44-.147-.933-.672-1.596-.408-.514-.811-.765-1.23-.765C1.372.068.932.537.58.913.517.98.458 1.043.4 1.1c-.217.22-.328.572-.323 1.019.004.421.113.928.313 1.468.455 1.223 1.353 2.55 2.53 3.74.906.918 1.894 1.672 2.861 2.18.852.455 1.673.704 2.31.704zm-.184-3.365c.284 0 .66.192 1.148.59.378.306.576.598.587.866.015.386-.36.749-.694 1.069a8.385 8.385 0 0 0-.194.19c-.124.125-.358.194-.661.194-.566 0-1.315-.229-2.107-.648-.924-.488-1.876-1.211-2.75-2.097C2.102 5.867 1.24 4.595.807 3.433.389 2.308.496 1.649.716 1.429c.062-.063.124-.128.188-.197C1.213.904 1.563.53 1.937.53c.27 0 .565.201.879.594.43.542.619.95.578 1.249-.036.263-.247.472-.516.74-.037.035-.07.072-.107.108-.282.285-.228.737.162 1.343.26.406.683.905 1.257 1.486C5.28 7.152 6.026 7.665 6.538 7.665a.62.62 0 0 0 .448-.179l.107-.108c.324-.34.525-.531.813-.531z" fill-rule="nonzero" fill="#FFF"/></svg>