<svg width="18" height="17" viewBox="0 0 18 17" xmlns="http://www.w3.org/2000/svg"><path d="M0 8.475c0 1.854.604 3.573 1.631 4.968l-1.067 3.15 3.292-1.042a8.562 8.562 0 0 0 4.712 1.4c4.722 0 8.563-3.802 8.563-8.475C17.131 3.802 13.291 0 8.568 0 3.841 0 0 3.802 0 8.475zm6.238-3.83a3.838 3.838 0 0 0-.226-.009c-.257 0-.526.075-.688.239-.197.2-.688.665-.688 1.62 0 .955.704 1.879.799 2.008.099.129 1.372 2.117 3.349 2.927 1.546.634 2.005.575 2.356.501.514-.11 1.159-.485 1.321-.94.162-.453.162-.84.115-.923-.048-.082-.178-.129-.376-.227s-1.158-.567-1.34-.63c-.178-.066-.348-.043-.483.145-.19.262-.375.528-.526.689-.118.125-.312.14-.474.074-.217-.09-.826-.301-1.578-.963-.58-.512-.976-1.15-1.09-1.342-.116-.195-.013-.31.078-.415.1-.121.194-.207.293-.32.099-.114.154-.173.217-.306.068-.13.02-.262-.027-.36-.048-.098-.443-1.053-.605-1.44-.13-.31-.23-.321-.427-.329z" fill="#F00" fill-rule="evenodd"/></svg>