<svg width="12" height="10" viewBox="0 0 12 10" xmlns="http://www.w3.org/2000/svg"><title>1497450584_phone</title><g fill-rule="nonzero" fill="#FFF"><path d="M.104 1.221L.5.821l3.667 3.705c.458.463 1.229.463 1.687 0L9.521.842l.396.4L7.187 4l2.73 2.758-.396.4L6.79 4.4l-.541.547c-.333.337-.77.527-1.23.527-.457 0-.895-.19-1.228-.527L3.25 4.4.52 7.158l-.395-.4L2.855 4 .104 1.221"/><path d="M.875 7.874h8.23c.478 0 .874-.4.874-.885V1.053a.885.885 0 0 0-.875-.885H.875c-.48 0-.875.4-.875.885v5.936c0 .485.396.885.875.885zM9.125.737c.167 0 .292.126.292.295v5.936a.286.286 0 0 1-.292.295H.895a.286.286 0 0 1-.29-.295V1.032c0-.169.124-.295.29-.295h8.23zM11.772 9.965a.265.265 0 0 0 .07-.01.229.229 0 0 0 .144-.288C11.63 8.59 10.545 8.054 10.5 8.03a.224.224 0 0 0-.3.108.232.232 0 0 0 .104.305c.008.004.96.477 1.253 1.369a.232.232 0 0 0 .215.153z"/></g></svg>