<svg width="15" height="12" viewBox="0 0 15 12" xmlns="http://www.w3.org/2000/svg"><path d="M15 1.42a6.205 6.205 0 0 1-1.767.477A3.044 3.044 0 0 0 14.586.222a6.212 6.212 0 0 1-1.955.734A3.093 3.093 0 0 0 10.385 0C8.686 0 7.309 1.356 7.309 3.03c0 .237.026.467.079.69A8.78 8.78 0 0 1 1.044.552a2.99 2.99 0 0 0-.416 1.525c0 1.05.543 1.977 1.369 2.52a3.117 3.117 0 0 1-1.395-.377v.037c0 1.469 1.061 2.693 2.47 2.97a3.11 3.11 0 0 1-1.39.053 3.073 3.073 0 0 0 2.874 2.103 6.235 6.235 0 0 1-3.822 1.298c-.248 0-.494-.014-.734-.042A8.825 8.825 0 0 0 4.717 12c5.662 0 8.756-4.615 8.756-8.619 0-.132-.002-.263-.008-.392A6.173 6.173 0 0 0 15 1.42" fill="#F00" fill-rule="evenodd"/></svg>