<svg width="14" height="13" viewBox="0 0 14 13" xmlns="http://www.w3.org/2000/svg"><path d="M10.523.013A6.21 6.21 0 0 1 10.895 0c.425 0 .87.126 1.138.403.326.337 1.137 1.124 1.137 2.736 0 1.613-1.163 3.173-1.32 3.391-.164.218-2.268 3.576-5.536 4.944-2.556 1.071-3.314.972-3.896.846-.85-.185-1.915-.82-2.183-1.586-.268-.767-.268-1.421-.19-1.56.079-.139.295-.218.621-.383.327-.166 1.916-.959 2.216-1.065.294-.112.575-.072.797.245.314.443.621.892.87 1.163.196.212.516.238.784.126.36-.152 1.366-.51 2.608-1.626.961-.866 1.615-1.943 1.804-2.267.19-.33.02-.522-.13-.7-.164-.206-.32-.35-.484-.543-.164-.191-.255-.29-.36-.515-.111-.218-.032-.443.046-.608.078-.166.732-1.778 1-2.433.216-.522.38-.542.706-.555z" fill="#F00" fill-rule="evenodd"/></svg>