<svg width="13" height="12" viewBox="0 0 13 12" xmlns="http://www.w3.org/2000/svg"><path d="M12.1 11.444H9.426V7.577c0-1.012-.419-1.703-1.338-1.703-.704 0-1.095.466-1.277.916-.069.161-.058.386-.058.61v4.044h-2.65s.035-6.85 0-7.472h2.65v1.172C6.909 4.632 7.756 3.9 9.107 3.9c1.676 0 2.993 1.075 2.993 3.39v4.154zM1.424 3.037h-.017C.553 3.037 0 2.466 0 1.742 0 1.003.57.444 1.44.444s1.406.558 1.423 1.295c0 .725-.552 1.298-1.439 1.298zm-1.119.935h2.359v7.472H.305V3.972z" fill="#F00" fill-rule="evenodd"/></svg>