<svg width="8" height="10" viewBox="0 0 8 10" xmlns="http://www.w3.org/2000/svg"><title>1497454180_Diamond Copy</title><g fill-rule="nonzero" fill="#C2E2E4"><path d="M4.118 9.019L.865 4.999v.108l3.253-4.091H3.92l3.139 4.127v-.108L3.92 9.02c-.088.111.111.219.198.107l3.139-3.983a.098.098 0 0 0 0-.108L4.118.908A.119.119 0 0 0 4.02.857c-.04 0-.078.02-.099.051L.666 5a.098.098 0 0 0 0 .108l3.254 4.02c.088.11.288.002.198-.108z"/><path d="M4.157 9.844L.23 4.991V5.1L4.157.16h-.199l3.79 4.982v-.107l-3.79 4.81c-.087.111.112.219.199.107l3.789-4.81a.098.098 0 0 0 0-.107L4.156.053A.119.119 0 0 0 4.058 0c-.04 0-.077.02-.099.052L.03 4.99a.098.098 0 0 0 0 .108l3.93 4.853c.087.11.287.003.198-.108z"/></g></svg>