<svg width="8" height="12" viewBox="0 0 8 12" xmlns="http://www.w3.org/2000/svg"><title>1497450554_location</title><g fill-rule="nonzero" fill="#FFF"><path d="M4 11.925l-.212-.275c-.14-.2-3.74-4.675-3.74-7.35C.047 1.975 1.834.1 4 .1S7.953 2 7.953 4.3c0 2.675-3.6 7.175-3.741 7.35L4 11.925zM4 .675C2.118.675.612 2.3.612 4.275c0 2.1 2.612 5.675 3.388 6.7.776-1.025 3.388-4.575 3.388-6.7C7.388 2.3 5.882.675 4 .675z"/><path d="M4 5.9c-.824 0-1.506-.725-1.506-1.6 0-.875.682-1.6 1.506-1.6s1.506.725 1.506 1.6c0 .875-.682 1.6-1.506 1.6zm0-2.6c-.518 0-.941.45-.941 1s.423 1 .941 1 .941-.45.941-1-.423-1-.941-1z"/></g></svg>