<?xml version="1.0" encoding="UTF-8"?>
<svg width="15px" height="12px" viewBox="0 0 15 12" version="1.1" xmlns="http://www.w3.org/2000/svg" xmlns:xlink="http://www.w3.org/1999/xlink">
    <defs></defs>
    <g id="Def" stroke="none" stroke-width="1" fill="none" fill-rule="evenodd">
        <g id="Menu_Mobile" transform="translate(-114.000000, -606.000000)" fill="#FF0000">
            <g id="Group-13" transform="translate(59.000000, 605.000000)">
                <path d="M70,2.42058505 C69.4488466,2.66153846 68.8554323,2.82448537 68.2329635,2.89729144 C68.8686388,2.52286024 69.3564008,1.9291441 69.5861948,1.22188516 C68.9910195,1.56858072 68.3333333,1.82080173 67.6307448,1.956013 C67.0707871,1.36749729 66.2704702,1 65.3847508,1 C63.6863884,1 62.308505,2.35644637 62.308505,4.02925244 C62.308505,4.26673889 62.3349181,4.49729144 62.3877443,4.7191766 C59.8300757,4.59263272 57.5629512,3.38786566 56.0441979,1.55297941 C55.7791865,2.00195016 55.6277514,2.52286024 55.6277514,3.07757313 C55.6277514,4.12806067 56.1709808,5.05547129 56.9968304,5.59891658 C56.4932206,5.58418202 56.0177848,5.44637053 55.6022187,5.22101842 L55.6022187,5.25828819 C55.6022187,6.72654388 56.6631449,7.95124594 58.0718436,8.22860238 C57.8138757,8.29967497 57.5418207,8.33521127 57.2609614,8.33521127 C57.0628632,8.33521127 56.8691671,8.31700975 56.6816341,8.28147346 C57.0734284,9.48450704 58.2091918,10.3607801 59.5562599,10.384182 C58.5032576,11.1971831 57.1755591,11.6816901 55.7342842,11.6816901 C55.4860011,11.6816901 55.2403592,11.6678223 55,11.6400867 C56.3620356,12.4981582 57.9802782,13 59.7173798,13 C65.3785878,13 68.4733228,8.38461538 68.4733228,4.38114843 C68.4733228,4.24940412 68.4706815,4.1176598 68.4653988,3.98851571 C69.0667371,3.56121343 69.5888361,3.02816901 70,2.42058505" id="Twitter"></path>
            </g>
        </g>
    </g>
</svg>