<?xml version="1.0" encoding="UTF-8"?>
<svg width="13px" height="13px" viewBox="0 0 13 13" version="1.1" xmlns="http://www.w3.org/2000/svg" xmlns:xlink="http://www.w3.org/1999/xlink">

    <g id="Def" stroke="none" stroke-width="1" fill="none" fill-rule="evenodd">
        <g id="Contact@2x" transform="translate(-201.000000, -663.000000)" fill="#FF0000">
            <path d="M207.352201,670.787129 C207.352201,670.787129 209.792704,670.783782 210.786415,670.783782 C210.248302,672.452609 209.411572,673.361386 207.352201,673.361386 C205.268113,673.361386 203.641509,671.632579 203.641509,669.5 C203.641509,667.367421 205.268113,665.638614 207.352201,665.638614 C208.454088,665.638614 209.165723,666.034921 209.818491,666.587292 C210.341006,666.052619 210.297358,665.976421 211.62673,664.691802 C210.498239,663.640733 208.998365,663 207.352201,663 C203.843962,663 201,665.910134 201,669.5 C201,673.089802 203.843962,676 207.352201,676 C212.596038,676 213.877736,671.327723 213.45283,668.212871 L207.352201,668.212871 L207.352201,670.787129 Z" id="GooglePlus"></path>
        </g>
    </g>
</svg>