<?xml version="1.0" encoding="UTF-8"?>
<svg width="20px" height="13px" viewBox="0 0 20 13" version="1.1" xmlns="http://www.w3.org/2000/svg" xmlns:xlink="http://www.w3.org/1999/xlink">
    <defs></defs>
    <g id="Def" stroke="none" stroke-width="1" fill="none" fill-rule="evenodd">
        <g id="Menu_Mobile" transform="translate(-168.000000, -606.000000)" fill="#FF0000">
            <g id="Group-13" transform="translate(59.000000, 605.000000)">
                <path d="M126.798742,6.34158416 L126.798742,4.08910891 L125.226415,4.08910891 L125.226415,6.34158416 L122.962264,6.34158416 L122.962264,7.95049505 L125.226415,7.95049505 L125.226415,10.2673267 L126.798742,10.2673267 L126.798742,7.95049505 L129,7.95049505 L129,6.34158416 L126.798742,6.34158416 L126.798742,6.34158416 Z M115.352201,6.21287129 L115.352201,8.78712871 C115.352201,8.78712871 117.792704,8.78378218 118.786415,8.78378218 C118.248302,10.4526089 117.411572,11.3613861 115.352201,11.3613861 C113.268113,11.3613861 111.641509,9.63257921 111.641509,7.5 C111.641509,5.36742079 113.268113,3.63861386 115.352201,3.63861386 C116.454088,3.63861386 117.165723,4.03492079 117.818491,4.58729208 C118.341006,4.05261881 118.297358,3.97642079 119.62673,2.69180198 C118.498239,1.64073267 116.998365,1 115.352201,1 C111.843962,1 109,3.91013366 109,7.5 C109,11.089802 111.843962,14 115.352201,14 C120.596038,14 121.877736,9.32772277 121.45283,6.21287129 L115.352201,6.21287129 L115.352201,6.21287129 Z" id="GooglePlus"></path>
            </g>
        </g>
    </g>
</svg>