<?xml version="1.0" encoding="UTF-8"?>
<svg width="15px" height="15px" viewBox="0 0 15 15" version="1.1" xmlns="http://www.w3.org/2000/svg" xmlns:xlink="http://www.w3.org/1999/xlink">
    <defs></defs>
    <g id="Def" stroke="none" stroke-width="1" fill="none" fill-rule="evenodd">
        <g id="Menu_Mobile" transform="translate(-59.000000, -605.000000)" fill="#FF0000">
            <g id="Group-13" transform="translate(59.000000, 605.000000)">
                <path d="M8.01198602,15 L0.82788485,15 C0.370522705,15 0,14.6292474 0,14.1720634 L0,0.827878426 C0,0.370578033 0.370580909,0 0.82788485,0 L14.1721734,0 C14.6293609,0 15,0.370578033 15,0.827878426 L15,14.1720634 C15,14.6293056 14.6293027,15 14.1721734,15 L10.3497829,15 L10.3497829,9.19117333 L12.2995379,9.19117333 L12.591486,6.92737051 L10.3497829,6.92737051 L10.3497829,5.48207544 C10.3497829,4.82665228 10.5317849,4.38000303 11.471653,4.38000303 L12.6704098,4.3794792 L12.6704098,2.3547158 C12.4630894,2.32712761 11.7514949,2.26549071 10.92361,2.26549071 C9.19526069,2.26549071 8.01198602,3.32047695 8.01198602,5.25787777 L8.01198602,6.92737051 L6.05722556,6.92737051 L6.05722556,9.19117333 L8.01198602,9.19117333 L8.01198602,15 L8.01198602,15 Z" id="Facebook"></path>
            </g>
        </g>
    </g>
</svg>