<?xml version="1.0" encoding="UTF-8"?>
<svg width="18px" height="17px" viewBox="0 0 18 17" version="1.1" xmlns="http://www.w3.org/2000/svg" xmlns:xlink="http://www.w3.org/1999/xlink">
    <g id="Def" stroke="none" stroke-width="1" fill="none" fill-rule="evenodd">
        <g id="Vacatures@2x" transform="translate(-354.000000, -291.000000)" fill="#FF0000">
            <g id="Group-2" transform="translate(354.000000, 291.000000)">
                <path d="M0,8.47547516 C0,10.3290547 0.604116527,12.048056 1.63105779,13.4433383 L0.563766316,16.5923563 L3.85614456,15.551168 C5.21029192,16.4380906 6.82628943,16.9512316 8.56816822,16.9512316 C13.2902794,16.9512316 17.1313637,13.1492912 17.1313637,8.47561578 C17.1313637,3.80179975 13.2902794,2.28120257e-13 8.56816822,2.28120257e-13 C3.84108427,-0.000140625106 0,3.80165912 0,8.47547516 Z M6.2377456,4.64409482 C6.17045877,4.64022923 6.09547245,4.63636364 6.0123403,4.63636364 C5.75524434,4.63636364 5.48643177,4.71069348 5.32429617,4.87503644 C5.12667597,5.07461153 4.63636364,5.54024991 4.63636364,6.49516203 C4.63636364,7.45007414 5.3401415,8.37361973 5.43499026,8.502841 C5.53385616,8.63184139 6.80706139,10.6198611 8.78393289,11.4300895 C10.3298562,12.0640469 10.7885895,12.0052899 11.1404226,11.93096 C11.6543914,11.8213981 12.2989166,11.4455519 12.4610522,10.9917312 C12.6231878,10.5376896 12.6231878,10.1502466 12.5756519,10.0680752 C12.5282275,9.98590368 12.397671,9.93907477 12.2000508,9.84110958 C12.0024306,9.74325483 11.0415567,9.27364041 10.8596703,9.21101779 C10.6816894,9.14452958 10.5117427,9.16805448 10.3773922,9.35592233 C10.1875831,9.61812004 10.0017911,9.88429378 9.85148367,10.0446607 C9.73286692,10.1699059 9.53904067,10.1855892 9.37701666,10.1189906 C9.15953401,10.0290879 8.55071651,9.81758468 7.79940267,9.1562368 C7.21814711,8.64365906 6.82279512,8.00583609 6.70819549,7.81410263 C6.59348428,7.61850359 6.69636729,7.50485513 6.78719894,7.3992692 C6.88606483,7.27788955 6.9809136,7.19185248 7.07977949,7.07831447 C7.17864538,6.9648869 7.23399243,6.90612987 7.29726214,6.773043 C7.36454897,6.64393217 7.317013,6.51084529 7.26958861,6.41299055 C7.22216423,6.3151358 6.82681225,5.36022369 6.66467665,4.97289119 C6.53423169,4.66375413 6.4353658,4.6520469 6.2377456,4.64409482 Z" id="Combined-Shape"></path>
            </g>
        </g>
    </g>
</svg>