<?xml version="1.0" encoding="UTF-8"?>
<svg width="8px" height="12px" viewBox="0 0 8 12" version="1.1" xmlns="http://www.w3.org/2000/svg" xmlns:xlink="http://www.w3.org/1999/xlink">
    <!-- Generator: Sketch 46.1 (44463) - http://www.bohemiancoding.com/sketch -->
    <title>1497450554_location</title>
    <desc>Created with Sketch.</desc>
    <defs></defs>
    <g id="Page-1" stroke="none" stroke-width="1" fill="none" fill-rule="evenodd">
        <g id="Mobile" transform="translate(-54.000000, -162.000000)" fill-rule="nonzero" fill="#FFFFFF">
            <g id="Group-9" transform="translate(-90.000000, -194.000000)">
                <g id="Group-8" transform="translate(131.000000, 346.000000)">
                    <g id="1497450554_location" transform="translate(13.000000, 10.000000)">
                        <path d="M4,11.925 L3.78823529,11.65 C3.64705882,11.45 0.0470588235,6.975 0.0470588235,4.3 C0.0470588235,1.975 1.83529412,0.1 4,0.1 C6.16470588,0.1 7.95294118,2 7.95294118,4.3 C7.95294118,6.975 4.35294118,11.475 4.21176471,11.65 L4,11.925 L4,11.925 Z M4,0.675 C2.11764706,0.675 0.611764706,2.3 0.611764706,4.275 C0.611764706,6.375 3.22352941,9.95 4,10.975 C4.77647059,9.95 7.38823529,6.4 7.38823529,4.275 C7.38823529,2.3 5.88235294,0.675 4,0.675 L4,0.675 Z" id="Fill-55"></path>
                        <path d="M4,5.9 C3.17647059,5.9 2.49411765,5.175 2.49411765,4.3 C2.49411765,3.425 3.17647059,2.7 4,2.7 C4.82352941,2.7 5.50588235,3.425 5.50588235,4.3 C5.50588235,5.175 4.82352941,5.9 4,5.9 L4,5.9 Z M4,3.3 C3.48235294,3.3 3.05882353,3.75 3.05882353,4.3 C3.05882353,4.85 3.48235294,5.3 4,5.3 C4.51764706,5.3 4.94117647,4.85 4.94117647,4.3 C4.94117647,3.75 4.51764706,3.3 4,3.3 L4,3.3 Z" id="Fill-56"></path>
                    </g>
                </g>
            </g>
        </g>
    </g>
</svg>