<?xml version="1.0" encoding="UTF-8"?>
<svg width="12px" height="13px" viewBox="0 0 12 13" version="1.1" xmlns="http://www.w3.org/2000/svg" xmlns:xlink="http://www.w3.org/1999/xlink">
    <defs></defs>
    <g id="Def" stroke="none" stroke-width="1" fill="none" fill-rule="evenodd">
        <g id="Styleguide@2x" transform="translate(-142.000000, -1639.000000)" fill="#FF0000">
            <path d="M147,1643.44409 L144,1643.44409 L148,1639.44409 L152,1643.44409 L149,1643.44409 L149,1646.44429 C149,1647.00038 148.552285,1647.44409 148,1647.44409 C147.443865,1647.44409 147,1646.99647 147,1646.44429 L147,1643.44409 Z M142,1646.43487 C142,1645.88768 142.443865,1645.44409 143,1645.44409 C143.552285,1645.44409 144,1645.89507 144,1646.43487 L144,1651.44409 L143,1651.44409 C142.447715,1651.44409 142,1650.99312 142,1650.45332 L142,1646.43487 Z M144,1649.44409 L152,1649.44409 L152,1651.44409 L144,1651.44409 L144,1649.44409 Z M152,1646.43487 C152,1645.88768 152.443865,1645.44409 153,1645.44409 C153.552285,1645.44409 154,1645.89507 154,1646.43487 L154,1650.45332 C154,1651.00051 153.556135,1651.44409 153,1651.44409 L152,1651.44409 L152,1646.43487 Z" id="Combined-Shape"></path>
        </g>
    </g>
</svg>