<?xml version="1.0" encoding="UTF-8"?>
<svg width="14px" height="13px" viewBox="0 0 14 13" version="1.1" xmlns="http://www.w3.org/2000/svg" xmlns:xlink="http://www.w3.org/1999/xlink">
    <defs></defs>
    <g id="Def" stroke="none" stroke-width="1" fill="none" fill-rule="evenodd">
        <g id="Vacatures@2x" transform="translate(-155.000000, -293.000000)" fill="#FF0000">
            <path d="M157.647255,293.013058 C157.536023,293.006529 157.412062,293 157.274636,293 C156.849629,293 156.405253,293.125539 156.137226,293.403106 C155.810539,293.740178 155,294.526617 155,296.139414 C155,297.752211 156.16342,299.312032 156.320215,299.53028 C156.483651,299.748155 158.588395,303.105817 161.856374,304.474251 C164.41195,305.544972 165.170285,305.445735 165.751903,305.320195 C166.601548,305.135151 167.667017,304.500366 167.935044,303.733886 C168.203072,302.967034 168.203072,302.312663 168.12449,302.173879 C168.046092,302.035096 167.830268,301.956004 167.503581,301.790546 C167.176894,301.625275 165.588467,300.83212 165.287789,300.726354 C164.993568,300.614059 164.712628,300.653791 164.490532,300.97109 C164.176757,301.413928 163.869623,301.863482 163.621149,302.134333 C163.425063,302.345866 163.104648,302.372354 162.836805,302.259873 C162.477283,302.108032 161.470842,301.750814 160.228841,300.633832 C159.267963,299.768114 158.614404,298.690864 158.424959,298.367036 C158.235329,298.03668 158.405406,297.844733 158.55556,297.666404 C158.718996,297.4614 158.875791,297.316088 159.039227,297.124328 C159.202663,296.932755 159.294157,296.833518 159.398749,296.608741 C159.509981,296.390679 159.431399,296.165902 159.353002,296.000631 C159.274604,295.835359 158.621045,294.222562 158.353018,293.568378 C158.137378,293.046261 157.973942,293.026488 157.647255,293.013058 Z" id="path3011" transform="translate(161.585000, 299.197647) scale(-1, 1) translate(-161.585000, -299.197647) "></path>
        </g>
    </g>
</svg>