<?xml version="1.0" encoding="UTF-8"?>
<svg width="13px" height="12px" viewBox="0 0 13 12" version="1.1" xmlns="http://www.w3.org/2000/svg" xmlns:xlink="http://www.w3.org/1999/xlink">
    <defs></defs>
    <g id="Def" stroke="none" stroke-width="1" fill="none" fill-rule="evenodd">
        <g id="Styleguide@2x" transform="translate(-378.000000, -1698.000000)" fill="#FF0000">
            <path d="M390.1,1709.44409 L387.425735,1709.44409 L387.425735,1705.57715 C387.425735,1704.56499 387.007414,1703.87401 386.087535,1703.87401 C385.383931,1703.87401 384.992645,1704.3403 384.810519,1704.78968 C384.742221,1704.95098 384.752893,1705.17567 384.752893,1705.40036 L384.752893,1709.44409 L382.103528,1709.44409 C382.103528,1709.44409 382.137676,1702.59419 382.103528,1701.97153 L384.752893,1701.97153 L384.752893,1703.14429 C384.909407,1702.63152 385.756009,1701.89969 387.107014,1701.89969 C388.783143,1701.89969 390.1,1702.97454 390.1,1705.28907 L390.1,1709.44409 L390.1,1709.44409 Z M379.424283,1701.03685 L379.407208,1701.03685 C378.553492,1701.03685 378,1700.46561 378,1699.74153 C378,1699.00336 378.569855,1698.44409 379.440646,1698.44409 C380.310724,1698.44409 380.84572,1699.00195 380.862794,1699.73941 C380.862794,1700.4635 380.310724,1701.03685 379.424283,1701.03685 L379.424283,1701.03685 L379.424283,1701.03685 Z M378.305203,1701.97153 L380.663594,1701.97153 L380.663594,1709.44409 L378.305203,1709.44409 L378.305203,1701.97153 L378.305203,1701.97153 Z" id="LinkedIn"></path>
        </g>
    </g>
</svg>