<?xml version="1.0" encoding="UTF-8"?>
<svg width="12px" height="10px" viewBox="0 0 12 10" version="1.1" xmlns="http://www.w3.org/2000/svg" xmlns:xlink="http://www.w3.org/1999/xlink">
    <!-- Generator: Sketch 46.1 (44463) - http://www.bohemiancoding.com/sketch -->
    <title>1497450584_phone</title>
    <desc>Created with Sketch.</desc>
    <defs></defs>
    <g id="Page-1" stroke="none" stroke-width="1" fill="none" fill-rule="evenodd">
        <g id="Mobile" transform="translate(-51.000000, -205.000000)" fill-rule="nonzero" fill="#FFFFFF">
            <g id="Group-9" transform="translate(-90.000000, -194.000000)">
                <g id="Group-8-Copy-2" transform="translate(130.000000, 388.000000)">
                    <g id="1497450584_phone" transform="translate(16.500000, 16.000000) scale(-1, 1) translate(-16.500000, -16.000000) translate(10.000000, 11.000000)">
                        <g id="1497450570_mail" transform="translate(2.000000, 0.000000)">
                            <path d="M9.89583333,1.22105263 L9.5,0.821052632 L5.83333333,4.52631579 C5.375,4.98947368 4.60416667,4.98947368 4.14583333,4.52631579 L0.479166667,0.842105263 L0.0833333333,1.24210526 L2.8125,4 L0.0833333333,6.75789474 L0.479166667,7.15789474 L3.20833333,4.4 L3.75,4.94736842 C4.08333333,5.28421053 4.52083333,5.47368421 4.97916667,5.47368421 C5.4375,5.47368421 5.875,5.28421053 6.20833333,4.94736842 L6.75,4.4 L9.47916667,7.15789474 L9.875,6.75789474 L7.14583333,4 L9.89583333,1.22105263" id="Fill-3"></path>
                            <path d="M9.125,7.87368421 L0.895833333,7.87368421 C0.416666667,7.87368421 0.0208333333,7.47368421 0.0208333333,6.98947368 L0.0208333333,1.05263158 C0.0208333333,0.568421053 0.416666667,0.168421053 0.895833333,0.168421053 L9.125,0.168421053 C9.60416667,0.168421053 10,0.568421053 10,1.05263158 L10,6.98947368 C10,7.47368421 9.60416667,7.87368421 9.125,7.87368421 L9.125,7.87368421 Z M0.875,0.736842105 C0.708333333,0.736842105 0.583333333,0.863157895 0.583333333,1.03157895 L0.583333333,6.96842105 C0.583333333,7.13684211 0.708333333,7.26315789 0.875,7.26315789 L9.10416667,7.26315789 C9.27083333,7.26315789 9.39583333,7.13684211 9.39583333,6.96842105 L9.39583333,1.03157895 C9.39583333,0.863157895 9.27083333,0.736842105 9.10416667,0.736842105 L0.875,0.736842105 L0.875,0.736842105 Z" id="Fill-4"></path>
                        </g>
                        <path d="M0.227900242,9.96521739 C0.20442407,9.96521739 0.180947897,9.96089838 0.157471725,9.95441987 C0.0400908639,9.9155488 -0.0239350604,9.78597855 0.0144804942,9.66720582 C0.368757275,8.58961324 1.45506379,8.05405621 1.49988194,8.03030166 C1.6129944,7.97631406 1.74744884,8.02382315 1.80080378,8.13827687 C1.85415872,8.25057108 1.80720637,8.38661985 1.6962281,8.44276696 L1.6962281,8.44276696 C1.68769132,8.44708596 0.735839241,8.92001738 0.443454187,9.8118926 C0.409307027,9.90475127 0.321804931,9.96521739 0.227900242,9.96521739 Z" id="Shape"></path>
                    </g>
                </g>
            </g>
        </g>
    </g>
</svg>