<?xml version="1.0" encoding="UTF-8"?>
<svg width="8px" height="10px" viewBox="0 0 8 10" version="1.1" xmlns="http://www.w3.org/2000/svg" xmlns:xlink="http://www.w3.org/1999/xlink">
    <!-- Generator: Sketch 46.1 (44463) - http://www.bohemiancoding.com/sketch -->
    <title>1497454180_Diamond</title>
    <desc>Created with Sketch.</desc>
    <defs></defs>
    <g id="Page-1" stroke="none" stroke-width="1" fill="none" fill-rule="evenodd">
        <g id="Mobile" transform="translate(-134.000000, -1095.000000)" fill-rule="nonzero" fill="#C2E2E4">
            <g id="1497454180_Diamond" transform="translate(134.000000, 1095.000000)">
                <path d="M4.11827751,9.12616487 L7.25703349,5.14265233 C7.27837016,5.10959424 7.27837016,5.06818354 7.25703349,5.03512545 L4.11827751,0.908243728 C4.09697079,0.876162568 4.05948453,0.85665642 4.01913876,0.85665642 C3.97879298,0.85665642 3.94130672,0.876162568 3.92,0.908243728 L0.666411483,4.99928315 C0.644988474,5.03231866 0.644988474,5.07377453 0.666411483,5.10681004 L3.92,9.12616487 C4.00803828,9.23620072 4.03138756,9.23763441 4.11827751,9.12616487 Z" id="Shape"></path>
                <path d="M4.15655502,9.84444444 L0.229665072,4.99139785 L0.229665072,5.09892473 L4.15655502,0.160215054 L3.95827751,0.160215054 L7.7477512,5.14229391 L7.7477512,5.03476703 L3.95827751,9.84480287 C3.87062201,9.9562724 4.06966507,10.0637993 4.15655502,9.95232975 L7.94602871,5.14229391 C7.96736537,5.10923582 7.96736537,5.06782511 7.94602871,5.03476703 L4.15655502,0.052688172 C4.1352483,0.0206070123 4.09776204,0.00110086478 4.05741627,0.00110086478 C4.0170705,0.00110086478 3.97958424,0.0206070123 3.95827751,0.052688172 L0.0294736842,4.99139785 C0.00805067448,5.02443336 0.00805067448,5.06588922 0.0294736842,5.09892473 L3.95827751,9.95197133 C4.04631579,10.0620072 4.2461244,9.95483871 4.15655502,9.84444444 Z" id="Shape"></path>
            </g>
        </g>
    </g>
</svg>