<?xml version="1.0" encoding="UTF-8"?>
<svg width="11px" height="11px" viewBox="0 0 11 11" version="1.1" xmlns="http://www.w3.org/2000/svg" xmlns:xlink="http://www.w3.org/1999/xlink">
    <!-- Generator: Sketch 46.1 (44463) - http://www.bohemiancoding.com/sketch -->
    <title>Shape</title>
    <desc>Created with Sketch.</desc>
    <defs></defs>
    <g id="Page-1" stroke="none" stroke-width="1" fill="none" fill-rule="evenodd">
        <g id="Mobile" transform="translate(-52.000000, -242.000000)" fill-rule="nonzero" fill="#FFFFFF">
            <g id="Group-9" transform="translate(-90.000000, -194.000000)">
                <g id="Group-8-Copy" transform="translate(130.000000, 426.000000)">
                    <g id="1497450584_phone" transform="translate(17.500000, 15.500000) scale(-1, 1) translate(-17.500000, -15.500000) translate(12.000000, 10.000000)">
                        <path d="M2.91058647,10.2115504 C2.48161278,10.2115504 2.14227538,10.0970967 1.93098983,9.8833058 C1.8733665,9.82499919 1.80934057,9.76453308 1.74318045,9.69974795 C1.3611591,9.33263224 0.885233064,8.87481736 0.910843434,8.28095371 C0.927917014,7.87280743 1.17334972,7.47977767 1.66421514,7.0802694 C2.24471686,6.60949749 2.69930092,6.38922807 3.09412745,6.38922807 C3.58499287,6.38922807 3.8987199,6.71099419 4.23165471,7.05219584 C4.26580187,7.08674791 4.29994903,7.12345948 4.33623038,7.15801155 C4.35757236,7.17960659 4.39171952,7.20336114 4.46428223,7.20336114 C4.67556778,7.20336114 5.21978814,7.01116527 6.49390403,5.72194128 C7.04452698,5.1647892 7.4478903,4.68969829 7.69118881,4.30962555 C7.93448733,3.93171233 8.01772103,3.64233877 7.91314535,3.53652306 C7.87686399,3.49981149 7.84271683,3.46525943 7.80856967,3.43070736 C7.50551363,3.12837678 7.21953117,2.84548173 7.16190784,2.42869743 C7.10001611,1.98815858 7.30916747,1.49579163 7.83418004,0.832823849 C8.24181176,0.318861858 8.64517509,0.068359375 9.06347779,0.068359375 C9.62904012,0.068359375 10.0686848,0.536971779 10.4208274,0.912725503 C10.4827191,0.979670133 10.5424766,1.04229575 10.6001,1.10060237 C10.8177881,1.32087179 10.9287664,1.67287097 10.924498,2.11988833 C10.9202296,2.54099164 10.8113855,3.04847512 10.610771,3.58835116 C10.1561869,4.81063052 9.25768976,6.13872558 8.08174695,7.32861238 C7.17471302,8.24640165 6.18657959,9.0000686 5.21978814,9.50755208 C4.36824334,9.96320746 3.54657732,10.2115504 2.91058647,10.2115504 Z M3.09412745,6.84704295 C2.81027919,6.84704295 2.43466043,7.03923882 1.94592921,7.43658759 C1.56817626,7.74323718 1.36969589,8.03477024 1.3590249,8.30254876 C1.34408552,8.6891 1.71970428,9.0518967 2.05263908,9.37150332 C2.1209334,9.43628844 2.18495933,9.49891406 2.24685105,9.56153968 C2.37063451,9.68679093 2.60539623,9.75589506 2.90845227,9.75589506 C3.4740146,9.75589506 4.22311792,9.52698762 5.01490518,9.10804381 C5.93901269,8.61999587 6.89086476,7.89656197 7.76588573,7.01116527 C8.89701039,5.86662806 9.75922617,4.5946801 10.1924683,3.43286686 C10.610771,2.30776519 10.5040611,1.64911642 10.2842387,1.428847 C10.222347,1.36622138 10.1604553,1.30143625 10.0964294,1.23233212 C9.78697073,0.904087487 9.43696235,0.530493266 9.06347779,0.530493266 C8.79243471,0.530493266 8.49791546,0.731327154 8.18418843,1.12435691 C7.75308054,1.66639246 7.56527116,2.07453874 7.60582091,2.37255032 C7.64210227,2.63600983 7.85338782,2.84548173 8.1222967,3.11326025 C8.15857806,3.14781231 8.19272522,3.18452389 8.22900658,3.22123546 C8.51072064,3.50629001 8.45736571,3.95762638 8.06680757,4.56444705 C7.80643548,4.97043383 7.38386438,5.46927929 6.80976526,6.05018591 C5.72132454,7.15153304 4.97435543,7.66549503 4.46214803,7.66549503 C4.28500964,7.66549503 4.13134742,7.60286941 4.01396656,7.48625618 C3.97768521,7.44954461 3.94140385,7.41283304 3.90725669,7.37828097 C3.58285867,7.03707932 3.38224411,6.84704295 3.09412745,6.84704295 Z" id="Shape"></path>
                    </g>
                </g>
            </g>
        </g>
    </g>
</svg>